<?xml version="1.0" encoding="iso-8859-1"?>
<!-- Generator: Adobe Illustrator 19.0.0, SVG Export Plug-In . SVG Version: 6.00 Build 0)  -->
<svg version="1.1" id="Layer_1" xmlns="http://www.w3.org/2000/svg" xmlns:xlink="http://www.w3.org/1999/xlink" x="0px" y="0px"
	 viewBox="0 0 512 512" style="enable-background:new 0 0 512 512;" xml:space="preserve">
<path style="fill:#692811;" d="M505.953,200.521C480.605,85.812,378.332,0,256,0C114.616,0,0,114.616,0,256
	c0,113.961,74.473,210.514,177.401,243.687L505.953,200.521z"/>
<path style="fill:#3A160A;" d="M512,256c0-19.052-2.099-37.613-6.047-55.479l-93.338-93.338L79.842,402.129l97.558,97.558
	C202.169,507.671,228.578,512,256,512C397.384,512,512,397.384,512,256z"/>
<path style="fill:#FC870B;" d="M233.739,381.774L256,415.165h144.696c16.476,0,30.851-8.958,38.55-22.261L233.739,381.774z"/>
<g>
	<path style="fill:#FDA409;" d="M439.246,392.904c3.791-6.55,5.971-14.149,5.971-22.261v-22.261H233.739L256,392.904H439.246z"/>
	<path style="fill:#FDA409;" d="M72.754,392.904c7.699,13.303,22.074,22.261,38.55,22.261H256v-33.391L72.754,392.904z"/>
</g>
<path style="fill:#FFC207;" d="M256,348.383H66.783v22.261c0,8.112,2.18,15.711,5.971,22.261H256V348.383z"/>
<polygon style="fill:#F72E12;" points="445.217,286.052 244.87,297.183 256,252.661 445.217,252.661 "/>
<polygon style="fill:#F8513A;" points="256,297.183 66.783,286.052 66.783,252.661 256,252.661 "/>
<path style="fill:#813115;" d="M428.522,197.009H256L233.739,230.4L256,263.791h83.478l11.13-11.13l11.13,11.13H384l11.13-11.13
	l11.13,11.13h22.261c18.442,0,33.391-14.95,33.391-33.391S446.964,197.009,428.522,197.009z"/>
<path style="fill:#934D2B;" d="M83.478,197.009c-18.442,0-33.391,14.95-33.391,33.391s14.949,33.391,33.391,33.391h128l11.13-11.13
	l11.13,11.13H256v-66.783H83.478z"/>
<g>
	<rect x="211.478" y="241.53" style="fill:#813115;" width="22.261" height="22.261"/>
	<rect x="94.609" y="208.139" style="fill:#813115;" width="22.261" height="33.391"/>
</g>
<g>
	<rect x="294.957" y="219.27" style="fill:#692811;" width="22.261" height="22.261"/>
	<rect x="339.478" y="241.53" style="fill:#692811;" width="22.261" height="22.261"/>
	<rect x="384" y="241.53" style="fill:#692811;" width="22.261" height="22.261"/>
</g>
<path style="fill:#81982D;" d="M275.478,163.617c0,30.736,24.917,55.652,55.652,55.652c14.48,0,27.665-5.534,37.565-14.596
	c9.9,9.062,23.086,14.596,37.565,14.596c22.819,0,42.419-13.739,51.009-33.391h-12.052L275.478,163.617z"/>
<path style="fill:#A0AD2F;" d="M233.739,163.617L256,219.27c30.736,0,55.652-24.917,55.652-55.652H233.739z"/>
<path style="fill:#BEC130;" d="M54.731,185.878c8.589,19.652,28.189,33.391,51.009,33.391c14.48,0,27.665-5.534,37.565-14.596
	c9.901,9.062,23.086,14.596,37.565,14.596s27.665-5.534,37.565-14.596c9.901,9.062,23.086,14.596,37.565,14.596v-55.652
	L66.783,185.878H54.731z"/>
<path style="fill:#FC870B;" d="M407.759,102.609l-174.02,5.356L256,185.878h189.217
	C445.217,152.745,430.734,122.998,407.759,102.609z"/>
<path style="fill:#FDA409;" d="M104.241,102.609c-22.975,20.389-37.458,50.136-37.458,83.269H256v-66.783L104.241,102.609z"/>
<path style="fill:#FA690E;" d="M333.913,74.574l-11.13,11.13l-11.13-11.13H267.13l-33.391,22.261L256,119.096h100.174
	c19.235,0,37.028-6.118,51.585-16.488C388.11,85.17,362.251,74.574,333.913,74.574z"/>
<path style="fill:#FC870B;" d="M244.87,74.574h-44.522l-11.13,11.13l-11.13-11.13c-28.338,0-54.197,10.596-73.846,28.035
	c14.558,10.368,32.352,16.486,51.585,16.486H256V96.835L244.87,74.574z"/>
<rect x="278.261" y="119.096" style="fill:#FFE376;" width="22.261" height="22.261"/>
<rect x="211.478" y="119.096" style="fill:#FFF3AD;" width="22.261" height="22.261"/>
<g>
	<rect x="311.652" y="74.574" style="fill:#FFE376;" width="22.261" height="22.261"/>
	<rect x="244.87" y="74.574" style="fill:#FFE376;" width="22.261" height="22.261"/>
</g>
<rect x="178.087" y="74.574" style="fill:#FFF3AD;" width="22.261" height="22.261"/>
<path style="fill:#813115;" d="M428.522,303.861H256l-22.261,33.391L256,370.643h128l11.13-11.13l11.13,11.13h22.261
	c18.442,0,33.391-14.95,33.391-33.391C461.913,318.811,446.964,303.861,428.522,303.861z"/>
<path style="fill:#934D2B;" d="M83.478,303.861c-18.442,0-33.391,14.95-33.391,33.391c0,18.441,14.949,33.391,33.391,33.391H128
	l11.13-11.13l11.13,11.13H256v-66.783H83.478z"/>
<g>
	<rect x="83.478" y="303.861" style="fill:#813115;" width="22.261" height="22.261"/>
	<rect x="128" y="348.383" style="fill:#813115;" width="22.261" height="22.261"/>
	<rect x="172.522" y="326.122" style="fill:#813115;" width="22.261" height="22.261"/>
</g>
<rect x="384" y="348.383" style="fill:#692811;" width="22.261" height="22.261"/>
<path style="fill:#FDA409;" d="M445.217,286.052v22.279c-47.302,0-47.302,22.243-94.604,22.243
	c-47.303,0-47.303-22.261-94.608-22.261c-0.006,0-11.136-11.13-11.136-11.13l11.13-11.13H445.217z"/>
<path style="fill:#FFD23E;" d="M66.783,286.052v22.279c47.302,0,47.302,22.243,94.604,22.243c47.303,0,47.303-22.261,94.608-22.261
	c0.006,0,0.006-22.261,0.006-22.261H66.783z"/>
<g>
</g>
<g>
</g>
<g>
</g>
<g>
</g>
<g>
</g>
<g>
</g>
<g>
</g>
<g>
</g>
<g>
</g>
<g>
</g>
<g>
</g>
<g>
</g>
<g>
</g>
<g>
</g>
<g>
</g>
</svg>
