<?xml version="1.0" encoding="iso-8859-1"?>
<!-- Generator: Adobe Illustrator 19.0.0, SVG Export Plug-In . SVG Version: 6.00 Build 0)  -->
<svg version="1.1" id="Layer_1" xmlns="http://www.w3.org/2000/svg" xmlns:xlink="http://www.w3.org/1999/xlink" x="0px" y="0px"
	 viewBox="0 0 512 512" style="enable-background:new 0 0 512 512;" xml:space="preserve">
<path style="fill:#5CB2FE;" d="M510.295,226.469C495.649,98.996,387.395,0,256,0C114.616,0,0,114.616,0,256
	c0.001,122.793,86.461,225.376,201.82,250.236L510.295,226.469z"/>
<g>
	<polygon style="fill:#2598FE;" points="107.823,320.702 281.217,494.097 362.057,413.256 	"/>
	<path style="fill:#2598FE;" d="M512,256c0-9.99-0.592-19.84-1.705-29.531l-42.817-42.817l-3.843,3.843l-55.677-55.677l-8.333,8.333
		l-80.697-80.688l-99.58,378.04l-71.87,14.391l54.341,54.341C219.286,510,237.409,512,256,512C397.384,512,512,397.384,512,256z"/>
</g>
<path style="fill:#FFC207;" d="M256,33.391l-22.261,89.043L256,211.478c49.178,0,89.043-39.866,89.043-89.043
	S305.178,33.391,256,33.391z"/>
<path style="fill:#FFD23E;" d="M166.957,122.435c0,49.178,39.866,89.043,89.043,89.043V33.391
	C206.824,33.391,166.957,73.258,166.957,122.435z"/>
<rect x="233.116" y="66.783" style="fill:#FFC207;" width="34.01" height="22.88"/>
<circle style="fill:#F8513A;" cx="166.957" cy="194.783" r="89.043"/>
<g>
	<rect x="122.123" y="161.391" style="fill:#F72E12;" width="22.88" height="34.01"/>
	<rect x="155.514" y="128" style="fill:#F72E12;" width="22.88" height="22.88"/>
</g>
<circle style="fill:#813115;" cx="345.043" cy="194.783" r="89.043"/>
<rect x="333.29" y="128" style="fill:#692811;" width="22.88" height="22.88"/>
<polygon style="fill:#C9E5FF;" points="233.739,340.59 256,440.764 300.522,429.634 289.391,340.59 "/>
<polygon style="fill:#FFFFFF;" points="222.609,340.59 211.478,429.634 256,440.764 256,340.59 "/>
<polygon style="fill:#C9E5FF;" points="364.522,429.634 256,429.634 244.87,440.764 256,451.895 364.522,451.895 "/>
<g>
	<rect x="147.478" y="429.635" style="fill:#FFFFFF;" width="108.522" height="22.261"/>
	<path style="fill:#FFFFFF;" d="M55.652,194.783H256V372.87h-22.261C135.385,372.87,55.652,293.137,55.652,194.783z"/>
</g>
<path style="fill:#C9E5FF;" d="M278.261,372.87H256V194.783h200.348C456.348,293.137,376.616,372.87,278.261,372.87z"/>
<path style="fill:#FCB9B0;" d="M408.206,225.701L252.575,328.348L256,350.609h22.261c74.578,0,136.908-52.397,152.216-122.381
	L408.206,225.701z"/>
<path style="fill:#FB9789;" d="M408.206,225.701l-174.467-19.788l18.836,122.435h25.686
	C341.269,328.348,394.22,284.491,408.206,225.701z"/>
<path style="fill:#A56840;" d="M411.826,194.783l-5.285,37.224c6.423-2.037,14.005-3.496,23.935-3.78
	c2.357-10.774,3.611-21.961,3.611-33.444H411.826z"/>
<path style="fill:#934D2B;" d="M233.739,194.783L256,228.174c44.517,0.002,44.519,22.261,89.041,22.261
	c32.786,0,41.443-12.064,61.501-18.429c3.435-11.821,5.284-24.309,5.284-37.224H233.739z"/>
<path style="fill:#FEDCD7;" d="M103.718,225.389l-22.194,2.838c15.308,69.985,77.637,122.381,152.215,122.381H256v-22.261
	L103.718,225.389z"/>
<path style="fill:#FCB9B0;" d="M103.718,225.389c13.873,58.946,66.902,102.959,130.021,102.959H256V205.913L103.718,225.389z"/>
<path style="fill:#FB9789;" d="M100.174,194.783H77.913c0,11.481,1.253,22.669,3.61,33.445c9.931,0.284,17.513,1.742,23.936,3.78
	L100.174,194.783z"/>
<path style="fill:#FA7461;" d="M256,228.174v-33.391H100.174c0,12.915,1.849,25.404,5.285,37.225
	c20.055,6.364,28.712,18.428,61.493,18.428C211.474,250.435,211.479,228.174,256,228.174z"/>
<path style="fill:#521F0E;" d="M399.901,194.783H377.64c0,0,0,17.81,0,33.391h22.261
	C399.901,212.592,399.901,194.783,399.901,194.783z"/>
<g>
	<path style="fill:#813115;" d="M377.64,228.174v33.391c0,6.146,4.983,11.13,11.13,11.13c6.147,0,11.13-4.984,11.13-11.13v-33.391
		H377.64z"/>
	<path style="fill:#813115;" d="M333.118,272.696c0,6.146,4.983,11.13,11.13,11.13c6.147,0,11.13-4.984,11.13-11.13v-44.522h-22.261
		V272.696z"/>
</g>
<path style="fill:#521F0E;" d="M333.118,194.783c0,0,0,15.911,0,33.391h22.261c0-17.48,0-33.391,0-33.391H333.118z"/>
<polygon style="fill:#C9E5FF;" points="411.031,183.652 377.64,189.217 344.249,183.652 256,183.652 244.87,194.783 256,205.913 
	344.249,205.913 377.64,200.348 411.031,205.913 467.478,205.913 467.478,183.652 "/>
<rect x="44.522" y="183.652" style="fill:#FFFFFF;" width="211.478" height="22.261"/>
<rect x="344.253" y="183.652" style="fill:#692811;" width="66.783" height="22.261"/>
<g>
</g>
<g>
</g>
<g>
</g>
<g>
</g>
<g>
</g>
<g>
</g>
<g>
</g>
<g>
</g>
<g>
</g>
<g>
</g>
<g>
</g>
<g>
</g>
<g>
</g>
<g>
</g>
<g>
</g>
</svg>
