<?xml version="1.0" encoding="iso-8859-1"?>
<!-- Generator: Adobe Illustrator 19.0.0, SVG Export Plug-In . SVG Version: 6.00 Build 0)  -->
<svg version="1.1" id="Layer_1" xmlns="http://www.w3.org/2000/svg" xmlns:xlink="http://www.w3.org/1999/xlink" x="0px" y="0px"
	 viewBox="0 0 512 512" style="enable-background:new 0 0 512 512;" xml:space="preserve">
<path style="fill:#934D2B;" d="M511.439,239.235C502.803,105.668,391.75,0,256,0C114.616,0,0,114.616,0,256
	c0,122.11,85.5,224.236,199.895,249.816L511.439,239.235z"/>
<path style="fill:#813115;" d="M512,256c0-5.634-0.203-11.221-0.561-16.765L397.675,125.471L75.229,381.151l124.665,124.665
	C217.952,509.855,236.725,512,256,512C397.384,512,512,397.384,512,256z"/>
<path style="fill:#BEC130;" d="M449.522,215.276c-2.562-9.564-9.03-17.035-17.225-21.17c2.872-8.718,2.161-18.574-2.789-27.15
	c-4.951-8.575-13.132-14.118-22.118-15.99c0.516-9.165-2.719-18.502-9.721-25.503c-7.001-7.001-16.338-10.238-25.503-9.72
	c-1.872-8.987-7.415-17.168-15.99-22.118c-8.575-4.951-18.431-5.661-27.15-2.789c-4.135-8.195-11.606-14.663-21.17-17.225
	c-9.564-2.563-19.268-0.698-26.947,4.333c-6.114-6.846-15.005-11.159-24.907-11.159l-44.522,275.813h197.147l36.563-100.373
	C450.218,234.545,452.084,224.841,449.522,215.276z"/>
<path style="fill:#DDD532;" d="M231.092,77.942c-7.679-5.031-17.382-6.895-26.947-4.333c-9.564,2.562-17.035,9.029-21.17,17.225
	c-8.718-2.872-18.574-2.162-27.15,2.789c-8.576,4.951-14.118,13.132-15.99,22.118c-9.165-0.518-18.501,2.719-25.503,9.72
	c-7.001,7.001-10.238,16.338-9.721,25.503c-8.986,1.873-17.168,7.415-22.118,15.99c-4.951,8.575-5.661,18.432-2.789,27.15
	c-8.195,4.135-14.663,11.606-17.225,21.17c-2.562,9.565-0.698,19.269,4.333,26.947l36.563,100.373H256V66.783
	C246.098,66.783,237.207,71.096,231.092,77.942z"/>
<g>
	<circle style="fill:#BEC130;" cx="94.731" cy="223.922" r="33.391"/>
	<path style="fill:#BEC130;" d="M201.44,105.846c-9.22-15.971-29.643-21.443-45.614-12.221c-8.575,4.951-14.118,13.132-15.99,22.118
		c-9.165-0.518-18.501,2.719-25.503,9.72c-13.04,13.04-13.04,34.183,0,47.223c13.04,13.04,34.183,13.04,47.222,0l27.662-21.227
		C205.188,142.239,210.66,121.817,201.44,105.846z"/>
</g>
<path style="fill:#A0AD2F;" d="M449.522,215.276c-2.562-9.564-9.03-17.035-17.225-21.17c2.872-8.718,2.161-18.574-2.789-27.15
	c-4.951-8.575-13.132-14.118-22.118-15.99c0.516-9.165-2.719-18.502-9.721-25.503c-13.04-13.04-34.183-13.04-47.222,0
	c-13.04,13.04-13.04,34.183,0,47.223l75.465,83.487C443.723,251.399,454.294,233.09,449.522,215.276z"/>
<path style="fill:#F72E12;" d="M256,89.043l-38.957,77.913L256,244.87c43.03,0,77.913-34.883,77.913-77.913
	S299.03,89.043,256,89.043z"/>
<g>
	<path style="fill:#F8513A;" d="M178.087,166.957c0,43.03,34.883,77.913,77.913,77.913V89.043
		C212.97,89.043,178.087,123.926,178.087,166.957z"/>
	<path style="fill:#F8513A;" d="M256,111.304l-27.826,55.652L256,222.609c30.736,0,55.652-24.917,55.652-55.652
		S286.736,111.304,256,111.304z"/>
</g>
<path style="fill:#FA7461;" d="M200.348,166.957c0,30.736,24.917,55.652,55.652,55.652V111.304
	C225.264,111.304,200.348,136.221,200.348,166.957z"/>
<path style="fill:#C9E5FF;" d="M133.565,155.826l-38.957,77.913l38.957,77.913c43.03,0,77.913-34.883,77.913-77.913
	S176.595,155.826,133.565,155.826z"/>
<path style="fill:#FFFFFF;" d="M55.652,233.739c0,43.03,34.883,77.913,77.913,77.913V155.826
	C90.535,155.826,55.652,190.709,55.652,233.739z"/>
<path style="fill:#92CCFF;" d="M133.565,178.087l-27.826,55.652l27.826,55.652c30.736,0,55.652-24.917,55.652-55.652
	S164.301,178.087,133.565,178.087z"/>
<path style="fill:#C9E5FF;" d="M77.913,233.739c0,30.736,24.917,55.652,55.652,55.652V178.087
	C102.83,178.087,77.913,203.004,77.913,233.739z"/>
<path style="fill:#F72E12;" d="M378.435,155.826l-38.957,77.913l38.957,77.913c43.03,0,77.913-34.883,77.913-77.913
	S421.465,155.826,378.435,155.826z"/>
<g>
	<path style="fill:#F8513A;" d="M300.522,233.739c0,43.03,34.883,77.913,77.913,77.913V155.826
		C335.405,155.826,300.522,190.709,300.522,233.739z"/>
	<path style="fill:#F8513A;" d="M378.435,178.087l-27.826,55.652l27.826,55.652c30.736,0,55.652-24.917,55.652-55.652
		S409.17,178.087,378.435,178.087z"/>
</g>
<path style="fill:#FA7461;" d="M322.783,233.739c0,30.736,24.917,55.652,55.652,55.652V178.087
	C347.699,178.087,322.783,203.004,322.783,233.739z"/>
<path style="fill:#FC870B;" d="M256,133.565L211.478,267.13l33.391,122.435l22.261,11.13h33.391l11.13-11.13l11.13,11.13h33.391
	l11.13-11.13l11.13,11.13h11.13c7.808,0,15.297-1.352,22.261-3.816l11.13-13.203h11.13c13.659-12.228,22.261-29.988,22.261-49.764
	C456.348,223.264,366.649,133.565,256,133.565z"/>
<path style="fill:#FDA409;" d="M55.652,333.913c0,19.775,8.603,37.536,22.261,49.764h11.13l11.13,13.203
	c6.964,2.463,14.453,3.816,22.261,3.816h11.13l11.13-11.13l11.13,11.13h33.391l11.13-11.13l11.13,11.13h33.391l11.13-11.13v-256
	C145.351,133.565,55.652,223.264,55.652,333.913z"/>
<path style="fill:#FA690E;" d="M244.87,156.183v244.512h22.261V156.183c-3.683-0.228-7.392-0.357-11.13-0.357
	C252.261,155.826,248.553,155.955,244.87,156.183z"/>
<g>
	<path style="fill:#FC870B;" d="M189.217,168.832v231.864h22.261V161.461C203.847,163.432,196.419,165.908,189.217,168.832z"/>
	<path style="fill:#FC870B;" d="M133.565,204.71v195.986h22.261V186.749C147.929,192.141,140.484,198.15,133.565,204.71z"/>
	<path style="fill:#FC870B;" d="M100.174,396.88V247.781c-14.171,25.535-22.258,54.894-22.261,86.109v49.785
		C84.336,389.427,91.878,393.948,100.174,396.88z"/>
</g>
<g>
	<path style="fill:#FA690E;" d="M322.783,168.832v231.864h-22.261V161.461C308.153,163.432,315.581,165.908,322.783,168.832z"/>
	<path style="fill:#FA690E;" d="M378.435,204.71v195.986h-22.261V186.749C364.071,192.141,371.516,198.15,378.435,204.71z"/>
	<path style="fill:#FA690E;" d="M411.826,396.88V247.781c14.171,25.535,22.258,54.894,22.261,86.109v49.785
		C427.664,389.427,420.122,393.948,411.826,396.88z"/>
</g>
<g>
</g>
<g>
</g>
<g>
</g>
<g>
</g>
<g>
</g>
<g>
</g>
<g>
</g>
<g>
</g>
<g>
</g>
<g>
</g>
<g>
</g>
<g>
</g>
<g>
</g>
<g>
</g>
<g>
</g>
</svg>
