<?xml version="1.0" encoding="iso-8859-1"?>
<!-- Generator: Adobe Illustrator 19.0.0, SVG Export Plug-In . SVG Version: 6.00 Build 0)  -->
<svg version="1.1" id="Layer_1" xmlns="http://www.w3.org/2000/svg" xmlns:xlink="http://www.w3.org/1999/xlink" x="0px" y="0px"
	 viewBox="0 0 512 512" style="enable-background:new 0 0 512 512;" xml:space="preserve">
<path style="fill:#F72E12;" d="M502.865,188.049C473.095,79.648,373.856,0,256,0C114.615,0,0,114.615,0,256
	c0,117.856,79.648,217.094,188.049,246.865L502.865,188.049z"/>
<path style="fill:#692811;" d="M512,256c0-23.529-3.191-46.309-9.135-67.951l-89.458-89.458L98.592,413.408l89.458,89.458
	c21.641,5.944,44.422,9.135,67.951,9.135C397.385,512,512,397.384,512,256z"/>
<path style="fill:#C9E5FF;" d="M256,33.391L144.696,256L256,478.609c122.943,0,222.609-99.665,222.609-222.609
	S378.943,33.391,256,33.391z"/>
<path style="fill:#FFFFFF;" d="M33.391,256c0,122.943,99.665,222.609,222.609,222.609V33.391
	C133.057,33.391,33.391,133.057,33.391,256z"/>
<path style="fill:#92CCFF;" d="M256,66.783L161.391,256L256,445.217c104.501,0,189.217-84.715,189.217-189.217
	S360.501,66.783,256,66.783z"/>
<path style="fill:#C9E5FF;" d="M66.783,256c0,104.503,84.716,189.217,189.217,189.217V66.783
	C151.499,66.783,66.783,151.497,66.783,256z"/>
<path style="fill:#FFF3AD;" d="M422.957,256l-228.174,44.522L256,89.043C348.204,89.043,422.957,163.795,422.957,256z"/>
<path style="fill:#FFE376;" d="M194.783,256h228.174c0,92.205-74.752,166.957-166.957,166.957L194.783,256z"/>
<path style="fill:#FFFFFF;" d="M256,89.043V256l-83.478,44.522L89.043,256C89.043,163.795,163.795,89.043,256,89.043z"/>
<path style="fill:#FFF3AD;" d="M256,256v166.957c-92.205,0-166.957-74.752-166.957-166.957H256z"/>
<path style="fill:#FFE376;" d="M400.696,256l-197.751,38.586L256,111.304C335.911,111.304,400.696,176.089,400.696,256z"/>
<path style="fill:#FFD23E;" d="M202.945,256h197.751c0,79.911-64.785,144.696-144.696,144.696L202.945,256z"/>
<path style="fill:#FFF3AD;" d="M256,111.304V256l-72.348,38.586L111.304,256C111.304,176.089,176.089,111.304,256,111.304z"/>
<path style="fill:#FFE376;" d="M256,256v144.696c-79.911,0-144.696-64.785-144.696-144.696H256z"/>
<path style="fill:#FFF3AD;" d="M378.435,256l-167.327,32.649L256,133.565C323.616,133.565,378.435,188.384,378.435,256z"/>
<path style="fill:#FFE376;" d="M211.108,256h167.327c0,67.616-54.819,122.435-122.435,122.435L211.108,256z"/>
<path style="fill:#FFFFFF;" d="M256,133.565V256l-61.217,32.649L133.565,256C133.565,188.384,188.384,133.565,256,133.565z"/>
<path style="fill:#FFF3AD;" d="M256,256v122.435c-67.616,0-122.435-54.819-122.435-122.435H256z"/>
<path style="fill:#FFE376;" d="M356.174,256L219.27,282.713L256,155.826C311.323,155.826,356.174,200.677,356.174,256z"/>
<path style="fill:#FFD23E;" d="M219.27,256h136.904c0,55.323-44.851,100.174-100.174,100.174L219.27,256z"/>
<path style="fill:#FFF3AD;" d="M256,155.826V256l-50.087,26.713L155.826,256C155.826,200.677,200.677,155.826,256,155.826z"/>
<path style="fill:#FFE376;" d="M256,256v100.174c-55.323,0-100.174-44.851-100.174-100.174H256z"/>
<path style="fill:#FFF3AD;" d="M333.913,256l-106.482,20.777L256,178.087C299.029,178.087,333.913,212.971,333.913,256z"/>
<path style="fill:#FFE376;" d="M227.431,256h106.482c0,43.029-34.884,77.913-77.913,77.913L227.431,256z"/>
<path style="fill:#FFFFFF;" d="M256,178.087V256l-38.957,20.777L178.087,256C178.087,212.971,212.971,178.087,256,178.087z"/>
<path style="fill:#FFF3AD;" d="M256,256v77.913c-43.029,0-77.913-34.884-77.913-77.913H256z"/>
<path style="fill:#F72E12;" d="M346.54,231.737c-2.214-8.282,0.422-18.581-3.774-25.833c-4.256-7.356-14.533-10.198-20.502-16.168
	c-5.97-5.97-8.812-16.247-16.168-20.503c-7.251-4.196-17.55-1.56-25.833-3.774c-8.005-2.138-15.584-9.632-24.263-9.632L211.478,256
	L256,356.174c8.68,0,16.258-7.494,24.263-9.633c8.282-2.214,18.581,0.422,25.833-3.774c7.356-4.256,10.198-14.533,16.168-20.502
	c5.97-5.97,16.247-8.812,20.503-16.168c4.196-7.251,1.56-17.55,3.774-25.833c2.138-8.005,9.632-15.584,9.632-24.263
	S348.68,239.742,346.54,231.737z"/>
<path style="fill:#F8513A;" d="M231.737,165.459c-8.282,2.214-18.581-0.422-25.833,3.774c-7.356,4.256-10.198,14.533-16.168,20.502
	c-5.97,5.97-16.247,8.812-20.503,16.168c-4.196,7.251-1.56,17.55-3.774,25.833c-2.138,8.005-9.632,15.584-9.632,24.263
	s7.494,16.258,9.633,24.263c2.214,8.282-0.422,18.581,3.774,25.833c4.256,7.356,14.533,10.198,20.502,16.168
	c5.97,5.97,8.812,16.247,16.168,20.503c7.251,4.196,17.55,1.56,25.833,3.774c8.005,2.138,15.584,9.632,24.263,9.632V155.826
	C247.32,155.826,239.742,163.32,231.737,165.459z"/>
<path style="fill:#63842C;" d="M274.218,226.452L256,256c12.276,5.025,30.172,1.672,39.805-7.96
	c9.632-9.632,12.987-27.529,7.961-39.805L274.218,226.452z"/>
<path style="fill:#81982D;" d="M263.962,216.194c-9.632,9.632-12.987,27.529-7.962,39.806l47.766-47.766
	C291.49,203.208,273.594,206.562,263.962,216.194z"/>
<path style="fill:#A0AD2F;" d="M237.782,285.548L256,256c-12.276-5.025-30.172-1.672-39.805,7.96
	c-9.632,9.632-12.987,27.529-7.96,39.805L237.782,285.548z"/>
<g>
	<path style="fill:#81982D;" d="M248.038,295.806c9.632-9.632,12.987-27.529,7.962-39.806l-47.766,47.766
		C220.509,308.792,238.406,305.438,248.038,295.806z"/>
	<path style="fill:#81982D;" d="M237.782,226.452L256,256c-12.276,5.025-30.172,1.672-39.805-7.96
		c-9.632-9.632-12.987-27.529-7.96-39.805L237.782,226.452z"/>
</g>
<path style="fill:#A0AD2F;" d="M248.038,216.194c9.632,9.632,12.987,27.529,7.962,39.806l-47.766-47.766
	C220.509,203.208,238.406,206.562,248.038,216.194z"/>
<path style="fill:#81982D;" d="M274.218,285.548L256,256c12.276-5.025,30.172-1.672,39.805,7.96
	c9.632,9.632,12.987,27.529,7.961,39.805L274.218,285.548z"/>
<path style="fill:#63842C;" d="M263.962,295.806c-9.632-9.632-12.987-27.529-7.962-39.806l47.766,47.766
	C291.49,308.792,273.594,305.438,263.962,295.806z"/>
<g>
</g>
<g>
</g>
<g>
</g>
<g>
</g>
<g>
</g>
<g>
</g>
<g>
</g>
<g>
</g>
<g>
</g>
<g>
</g>
<g>
</g>
<g>
</g>
<g>
</g>
<g>
</g>
<g>
</g>
</svg>
